<?xml version="1.0" encoding="UTF-8" ?>
<!DOCTYPE svg PUBLIC "-//W3C//DTD SVG 1.1//EN" "http://www.w3.org/Graphics/SVG/1.1/DTD/svg11.dtd">
<svg width="200pt" height="200pt" viewBox="0 0 1254 1254" version="1.1" xmlns="http://www.w3.org/2000/svg">
<g id="#fafafaff">
<path fill="#fafafa" opacity="1.00" d=" M 534.41 287.47 C 559.12 287.36 585.92 288.14 607.60 301.37 C 614.11 304.60 615.53 315.27 623.97 314.34 C 640.28 312.10 656.89 311.27 673.24 313.72 C 677.55 314.24 683.47 315.68 686.08 311.04 C 693.41 298.64 708.16 294.18 721.41 291.40 C 761.75 283.64 804.22 287.06 843.12 299.90 C 856.40 328.11 859.36 361.96 851.06 392.11 C 844.77 414.44 822.91 427.41 801.25 431.25 C 774.17 436.05 744.12 434.99 720.39 419.62 C 701.82 407.47 690.61 387.02 685.10 365.98 C 684.21 357.97 675.33 355.57 669.02 352.97 C 652.60 346.48 632.50 349.92 619.24 361.26 C 612.92 389.47 595.98 417.43 567.57 427.57 C 537.10 437.54 500.59 436.85 473.25 418.77 C 458.99 408.87 452.12 391.58 450.23 374.86 C 447.33 351.03 450.27 326.37 459.01 303.98 C 459.74 301.55 461.61 299.70 464.09 299.08 C 486.76 291.61 510.65 288.71 534.41 287.47 M 518.41 301.50 C 501.74 304.26 482.06 303.93 468.94 315.90 C 459.06 339.89 457.87 368.33 467.35 392.68 C 476.10 412.54 499.65 417.99 519.25 419.58 C 542.27 421.64 568.80 419.33 585.76 401.76 C 602.46 383.46 610.20 357.49 608.85 333.00 C 608.50 320.35 598.73 310.50 587.11 306.93 C 564.96 300.11 541.35 299.61 518.41 301.50 M 743.39 301.45 C 729.04 303.50 713.44 305.24 701.88 314.87 C 693.05 323.34 693.15 336.71 693.91 348.03 C 696.64 369.54 704.73 391.91 722.23 405.77 C 736.74 417.32 756.00 419.95 774.00 420.04 C 791.47 419.48 809.87 417.60 824.93 407.93 C 836.36 400.06 840.94 385.96 842.65 372.79 C 844.64 355.43 843.58 337.51 838.12 320.85 C 834.88 310.94 823.34 308.06 814.41 305.59 C 791.14 300.54 767.08 299.46 743.39 301.45 Z" />
<path fill="#fafafa" opacity="1.00" d=" M 503.33 314.16 C 525.81 309.37 550.40 308.47 572.91 313.99 C 586.64 321.77 597.27 335.21 598.70 351.30 C 598.75 359.93 595.32 368.17 592.60 376.24 C 595.60 357.54 585.27 336.37 565.77 332.19 C 547.92 327.96 529.55 341.23 525.59 358.63 C 519.38 378.21 529.04 403.17 549.71 409.22 C 552.06 409.68 550.05 410.30 548.91 410.83 C 533.45 412.18 517.04 412.73 502.24 407.84 C 475.75 383.91 477.56 337.88 503.33 314.16 Z" />
<path fill="#fafafa" opacity="1.00" d=" M 730.03 313.99 C 754.22 308.02 779.92 309.70 804.30 313.98 C 802.91 314.27 801.55 314.60 800.22 314.99 C 828.99 335.43 827.73 382.41 804.83 406.92 C 789.15 412.50 771.25 412.63 754.71 410.43 C 779.00 404.50 791.80 374.94 781.30 352.72 C 773.82 333.67 747.93 324.91 730.96 336.95 C 712.81 348.69 710.76 373.95 719.66 392.12 C 711.80 382.48 706.37 370.61 705.11 358.20 C 705.41 340.42 714.05 322.66 730.03 313.99 Z" />
<path fill="#fafafa" opacity="1.00" d=" M 565.39 341.37 C 573.41 339.16 580.39 348.40 577.84 355.81 C 576.16 363.45 564.89 366.32 560.11 359.89 C 554.86 354.02 557.37 343.15 565.39 341.37 Z" />
<path fill="#fafafa" opacity="1.00" d=" M 756.43 341.47 C 769.70 337.62 775.15 359.91 761.92 363.08 C 748.65 366.72 743.97 345.15 756.43 341.47 Z" />
<path fill="#fafafa" opacity="1.00" d=" M 645.27 452.62 C 649.42 460.05 647.27 475.51 647.91 486.06 C 649.41 498.46 629.95 502.81 624.97 492.01 C 621.01 481.86 619.30 470.26 620.30 459.54 C 628.95 458.60 637.32 456.13 645.27 452.62 Z" />
<path fill="#fafafa" opacity="1.00" d=" M 657.02 452.16 C 665.56 455.53 674.27 458.52 683.43 459.71 C 683.21 470.62 682.72 482.11 678.24 492.24 C 673.69 501.44 657.02 499.77 656.09 488.93 C 655.18 476.72 655.77 464.32 657.02 452.16 Z" />
<path fill="#fafafa" opacity="1.00" d=" M 635.29 652.39 C 638.15 651.64 638.02 656.14 638.87 658.02 C 634.35 658.12 627.61 653.83 635.29 652.39 Z" />
<path fill="#fafafa" opacity="1.00" d=" M 624.37 653.46 C 634.14 651.22 628.41 656.04 623.94 659.86 C 629.44 660.96 623.32 670.35 621.97 664.31 C 621.30 659.97 616.57 652.79 624.37 653.46 Z" />
<path fill="#fafafa" opacity="1.00" d=" M 615.26 654.45 C 618.63 655.15 619.77 666.18 614.86 661.06 C 609.14 656.82 612.84 668.20 607.38 668.49 C 603.97 670.34 596.99 662.73 603.01 662.34 C 599.31 663.18 597.61 659.58 600.87 657.53 C 602.53 659.63 603.87 661.99 605.76 663.91 C 609.25 660.29 608.48 652.98 615.26 654.45 Z" />
<path fill="#fafafa" opacity="1.00" d=" M 595.44 656.42 C 603.91 654.17 594.82 663.20 592.34 666.00 C 592.13 662.50 589.66 655.59 595.44 656.42 Z" />
<path fill="#fafafa" opacity="1.00" d=" M 577.01 675.95 C 634.34 670.64 691.60 664.68 748.88 658.91 C 747.70 664.58 741.83 667.47 737.36 670.36 C 717.88 680.65 695.62 683.65 674.01 686.07 C 647.22 688.98 619.81 689.53 593.37 683.65 C 587.66 682.06 580.88 680.80 577.01 675.95 M 704.63 667.62 C 702.87 670.29 700.26 669.41 697.88 668.10 C 700.56 670.41 701.76 673.59 700.13 676.93 C 702.52 673.78 705.80 674.29 708.87 676.16 C 705.03 674.70 705.39 668.71 704.63 667.62 M 693.16 668.41 C 687.55 668.77 690.69 679.26 695.67 677.66 C 701.37 677.04 697.18 668.19 693.16 668.41 M 684.30 669.08 C 678.88 671.56 683.83 682.07 689.25 678.31 C 692.11 675.26 688.76 667.96 684.30 669.08 M 676.38 670.38 C 671.84 671.28 674.48 680.38 678.86 679.73 C 685.13 679.99 681.10 668.76 676.38 670.38 M 669.23 671.62 C 665.23 671.97 670.02 675.73 670.08 677.98 C 673.12 684.31 672.39 670.27 669.23 671.62 M 651.52 672.50 C 649.17 674.77 651.55 684.68 656.93 682.16 C 665.01 681.43 657.91 668.45 651.52 672.50 M 643.44 673.49 C 638.84 674.03 642.16 680.28 645.84 679.30 C 651.70 680.84 644.28 681.68 641.91 680.43 C 642.19 685.65 653.72 683.04 649.68 678.43 C 647.05 677.90 640.33 675.06 646.57 675.55 C 652.00 676.72 646.04 671.67 643.44 673.49 M 631.30 674.40 C 629.13 677.74 631.51 685.79 636.86 684.25 C 642.21 683.89 639.81 677.74 638.70 674.48 C 634.65 673.51 640.95 683.06 635.98 682.33 C 631.93 682.81 633.89 674.48 631.30 674.40 Z" />
<path fill="#fafafa" opacity="1.00" d=" M 636.49 660.56 C 639.77 658.64 640.73 662.34 640.98 664.91 C 636.20 666.40 631.10 666.36 626.15 666.64 C 626.93 661.70 633.31 663.21 636.49 660.56 Z" />
<path fill="#fafafa" opacity="1.00" d=" M 614.00 662.16 C 623.72 664.92 613.79 672.06 614.00 662.16 Z" />
<path fill="#fafafa" opacity="1.00" d=" M 596.41 664.45 C 603.89 669.56 587.79 672.41 596.41 664.45 Z" />
</g>
<g id="#020202ff">
<path fill="#020202" opacity="1.00" d=" M 639.41 208.47 C 697.47 204.51 758.79 217.49 804.82 254.60 C 832.10 229.29 880.49 244.03 893.38 277.66 C 900.78 294.38 895.96 314.27 883.53 327.20 C 888.36 345.74 891.72 365.25 889.34 384.42 C 888.86 389.78 882.07 390.34 879.50 393.09 C 889.90 448.91 889.49 505.92 889.75 562.41 C 929.57 617.53 953.63 689.30 934.76 756.78 C 931.77 783.37 912.33 806.30 887.50 815.47 C 881.22 856.53 861.97 897.06 828.78 923.03 C 849.17 929.04 871.62 944.49 871.29 968.05 C 871.17 982.38 855.44 985.29 845.16 990.08 C 807.65 996.66 765.42 989.84 735.89 964.43 C 682.00 978.16 624.90 977.97 571.01 964.39 C 544.63 986.20 507.91 995.39 473.96 991.65 C 463.07 992.76 453.60 987.04 443.96 983.07 C 434.76 978.27 432.20 966.08 436.01 956.97 C 442.61 938.58 461.10 927.72 479.17 923.09 C 481.17 922.55 478.53 920.78 477.91 920.10 C 444.90 892.06 428.65 849.28 422.82 807.35 C 412.45 799.71 403.54 790.26 396.77 779.23 C 375.36 757.42 364.94 726.28 365.64 696.01 C 366.96 648.92 388.83 605.26 415.41 567.41 C 419.13 563.13 418.23 557.22 418.30 552.00 C 417.84 498.92 418.36 445.52 427.35 393.06 C 423.09 391.19 417.52 389.70 416.80 384.21 C 414.10 365.47 417.16 346.37 421.52 328.12 C 409.96 317.84 403.97 301.44 408.27 286.25 C 416.43 246.59 473.65 226.79 501.93 257.53 C 540.80 226.69 590.33 211.54 639.41 208.47 M 636.39 219.42 C 584.11 224.10 529.14 241.52 492.86 281.12 C 525.59 275.59 559.83 274.00 592.12 282.94 C 604.74 286.29 616.63 292.93 624.52 303.53 C 642.37 301.56 660.53 302.00 678.41 303.49 C 687.52 289.59 704.18 284.10 719.61 280.66 C 751.38 273.80 784.46 275.81 816.14 281.98 C 773.55 230.13 700.64 214.78 636.39 219.42 M 834.37 252.45 C 827.61 253.55 819.02 255.03 815.23 261.22 C 816.46 268.44 823.99 272.80 828.25 278.44 C 846.05 266.41 872.38 282.64 870.49 303.77 C 873.11 307.54 877.19 310.70 879.09 315.24 C 888.38 305.34 887.96 289.52 882.08 277.94 C 873.09 260.95 853.49 250.53 834.37 252.45 M 458.35 253.39 C 430.67 256.05 404.31 291.56 425.12 315.85 C 427.14 311.54 430.51 308.11 433.44 304.68 C 431.61 282.58 460.17 265.45 478.02 279.96 C 482.67 274.44 491.99 269.68 490.58 261.46 C 482.14 253.66 469.40 251.75 458.35 253.39 M 534.41 287.47 C 510.65 288.71 486.76 291.61 464.09 299.08 C 461.61 299.70 459.74 301.55 459.01 303.98 C 450.27 326.37 447.33 351.03 450.23 374.86 C 452.12 391.58 458.99 408.87 473.25 418.77 C 500.59 436.85 537.10 437.54 567.57 427.57 C 595.98 417.43 612.92 389.47 619.24 361.26 C 632.50 349.92 652.60 346.48 669.02 352.97 C 675.33 355.57 684.21 357.97 685.10 365.98 C 690.61 387.02 701.82 407.47 720.39 419.62 C 744.12 434.99 774.17 436.05 801.25 431.25 C 822.91 427.41 844.77 414.44 851.06 392.11 C 859.36 361.96 856.40 328.11 843.12 299.90 C 804.22 287.06 761.75 283.64 721.41 291.40 C 708.16 294.18 693.41 298.64 686.08 311.04 C 683.47 315.68 677.55 314.24 673.24 313.72 C 656.89 311.27 640.28 312.10 623.97 314.34 C 615.53 315.27 614.11 304.60 607.60 301.37 C 585.92 288.14 559.12 287.36 534.41 287.47 M 431.93 329.90 C 426.01 345.69 425.31 363.33 425.94 380.10 C 430.44 380.09 436.95 380.38 440.12 377.90 C 439.73 358.41 439.27 338.97 443.91 319.78 C 445.50 316.81 446.09 313.41 446.75 310.13 C 437.10 311.39 433.90 321.84 431.93 329.90 M 857.17 309.72 C 863.73 331.72 866.91 355.04 864.56 377.92 C 869.29 379.10 875.74 381.10 879.99 378.80 C 881.04 368.00 879.66 357.02 877.85 346.38 C 874.82 333.26 873.51 312.53 857.17 309.72 M 646.37 360.44 C 636.26 361.70 624.92 366.85 626.07 378.89 C 642.07 370.51 661.69 370.86 677.73 378.98 C 677.71 363.26 659.05 358.61 646.37 360.44 M 629.37 390.31 C 624.49 395.49 622.08 405.26 627.90 410.58 C 633.03 407.17 636.26 413.80 639.42 416.74 C 647.23 419.33 655.67 417.61 663.65 416.83 C 666.99 413.46 670.17 406.57 675.95 409.24 C 680.29 403.51 678.87 394.82 673.42 390.31 C 662.19 379.56 640.76 380.00 629.37 390.31 M 860.37 400.52 C 851.02 421.57 831.10 435.88 808.86 440.85 C 779.35 448.28 746.80 446.28 719.47 432.26 C 719.03 435.45 718.59 438.64 718.46 441.86 C 713.68 451.30 704.60 457.33 694.39 459.51 C 691.58 472.73 693.44 487.78 685.38 499.39 C 677.88 510.25 660.74 511.23 651.82 501.61 C 642.34 511.59 624.07 509.95 616.98 498.00 C 610.37 486.39 610.87 472.47 609.31 459.60 C 598.74 457.93 589.26 451.42 584.73 441.58 C 584.83 438.80 585.22 434.68 583.01 432.91 C 555.38 446.57 522.50 448.15 493.00 440.03 C 472.12 434.71 452.78 420.23 445.55 399.41 C 444.98 396.12 438.65 390.05 438.26 396.21 C 428.63 448.18 428.79 501.40 428.75 554.08 C 428.22 560.03 432.31 552.98 433.93 551.18 C 433.86 562.19 425.41 569.91 421.10 579.22 C 397.65 610.70 379.41 648.90 376.99 688.58 C 374.46 710.49 378.45 734.59 390.93 753.05 C 391.59 745.90 393.78 739.11 395.88 732.30 C 402.50 721.25 412.98 712.19 425.95 709.87 C 430.88 709.50 435.81 709.79 440.74 709.97 C 435.32 693.24 428.96 673.70 436.93 656.92 C 438.49 662.58 435.15 670.40 438.74 674.81 C 441.43 660.31 443.68 645.18 450.65 632.04 C 459.89 626.73 471.30 625.38 481.66 627.40 C 582.50 614.26 683.86 604.89 785.14 596.10 C 795.91 592.76 810.03 591.46 818.35 600.65 C 830.75 614.91 841.14 630.76 852.07 646.14 C 863.48 664.77 875.67 683.06 885.43 702.62 C 891.56 703.55 898.16 703.18 904.40 704.62 C 915.06 710.17 924.04 718.41 929.92 729.02 C 935.59 678.14 919.08 626.85 891.75 584.27 C 887.47 576.95 880.81 570.55 879.30 561.94 C 878.57 506.60 879.91 450.64 868.83 396.13 C 867.97 388.23 858.66 395.24 860.37 400.52 M 614.06 405.59 C 605.68 415.87 587.64 426.37 597.30 441.64 C 612.33 456.70 637.14 447.79 651.82 436.47 C 664.86 446.47 682.90 452.87 699.01 446.98 C 709.08 443.24 712.12 428.98 704.57 421.42 C 699.04 416.22 695.04 409.19 688.55 405.18 C 688.27 418.69 675.00 426.64 662.88 427.95 C 647.47 430.13 628.07 429.89 617.85 416.18 C 615.05 413.51 615.56 407.08 614.06 405.59 M 645.27 452.62 C 637.32 456.13 628.95 458.60 620.30 459.54 C 619.30 470.26 621.01 481.86 624.97 492.01 C 629.95 502.81 649.41 498.46 647.91 486.06 C 647.27 475.51 649.42 460.05 645.27 452.62 M 657.02 452.16 C 655.77 464.32 655.18 476.72 656.09 488.93 C 657.02 499.77 673.69 501.44 678.24 492.24 C 682.72 482.11 683.21 470.62 683.43 459.71 C 674.27 458.52 665.56 455.53 657.02 452.16 M 749.03 602.89 C 658.59 610.91 568.22 619.94 478.13 631.15 C 471.01 628.14 459.31 630.52 453.03 635.82 C 445.18 650.17 444.45 667.39 441.17 683.24 C 438.33 693.04 446.17 700.84 446.80 710.24 C 453.68 716.19 463.39 718.29 469.63 725.35 C 479.13 732.57 482.59 748.47 472.48 756.67 C 486.01 761.70 493.03 779.66 482.03 790.74 C 482.67 797.63 482.49 804.60 477.42 810.06 C 481.79 823.30 486.12 836.83 492.83 849.10 C 493.50 853.94 498.11 857.60 502.99 857.19 C 622.75 844.69 742.49 831.38 861.90 815.80 C 857.79 813.17 852.91 810.82 851.13 805.91 C 849.16 801.97 852.37 796.56 848.27 793.59 C 847.44 790.85 845.45 788.38 842.30 789.32 C 739.61 801.63 636.94 814.26 534.07 824.70 C 530.60 825.26 530.71 818.89 527.11 819.97 C 522.74 819.94 524.23 825.91 523.36 828.93 C 520.74 810.46 523.14 791.38 521.03 772.78 C 520.94 770.49 520.62 768.22 520.27 765.98 C 518.61 759.36 516.39 752.89 514.69 746.29 C 516.15 743.05 515.58 739.06 517.26 736.05 C 515.93 748.36 519.98 760.30 523.93 771.73 C 633.95 757.47 744.49 747.06 854.49 732.76 C 854.95 729.76 855.12 726.72 855.22 723.70 C 855.43 736.48 864.03 741.67 874.77 738.78 C 869.03 734.01 866.57 726.87 867.77 719.52 C 869.17 712.16 874.91 707.47 881.06 704.04 C 863.21 668.43 840.78 635.16 816.23 603.84 C 812.00 597.15 803.17 596.53 796.05 597.10 C 780.85 601.70 764.70 600.95 749.03 602.89 M 877.34 730.62 C 880.78 736.36 888.07 737.42 892.44 742.02 C 885.35 749.31 873.39 743.81 865.14 749.13 C 857.89 752.69 854.93 763.02 860.94 769.08 C 866.47 776.06 876.35 773.83 883.12 778.19 C 875.11 782.32 865.61 781.29 857.97 776.87 C 851.42 780.29 853.24 790.51 859.21 793.75 C 865.03 798.12 872.46 795.68 878.98 797.03 C 875.04 803.92 865.52 802.44 858.90 801.38 C 861.16 807.97 869.22 809.02 875.23 808.42 C 900.79 804.90 921.88 782.28 925.18 756.97 C 929.55 734.07 909.86 709.13 885.97 710.85 C 876.71 711.56 871.95 723.36 877.34 730.62 M 427.99 718.85 C 416.26 720.82 406.61 729.98 402.62 740.99 C 392.65 770.41 418.33 800.64 446.41 806.64 C 455.72 809.39 475.08 809.42 473.12 795.34 C 465.38 796.31 454.93 797.41 449.99 789.95 C 460.90 791.19 483.06 789.87 479.17 773.82 C 475.45 758.64 453.68 765.98 448.14 753.31 C 453.62 751.31 460.73 754.94 466.30 751.32 C 473.71 747.69 471.82 737.17 466.50 732.49 C 456.27 723.13 442.04 716.81 427.99 718.85 M 669.24 756.13 C 667.30 758.08 665.37 758.16 662.95 756.92 C 618.93 761.58 575.10 767.03 531.08 771.85 C 529.35 772.43 524.70 772.06 526.20 774.92 C 518.19 784.84 531.34 792.81 529.73 802.96 C 530.02 809.00 527.94 816.24 532.80 821.01 C 532.35 824.06 535.94 822.52 537.75 822.71 C 638.77 811.67 739.70 799.57 840.62 787.47 C 850.68 787.43 844.21 773.33 850.26 768.42 C 848.66 760.47 850.13 752.28 855.79 746.18 C 853.00 745.67 849.40 746.51 847.73 743.63 C 852.37 743.38 857.26 743.58 861.69 742.64 C 861.57 738.38 856.61 733.55 852.01 734.79 C 791.14 742.37 730.17 749.16 669.24 756.13 M 434.83 812.99 C 435.25 822.23 438.19 831.10 440.48 840.01 C 452.52 883.96 484.64 923.07 528.99 936.80 C 592.28 968.01 667.63 970.83 735.41 953.42 C 749.23 949.12 763.33 944.81 776.02 937.77 C 820.78 925.11 857.30 888.44 869.31 843.48 C 872.89 835.96 874.94 826.05 875.77 817.25 C 863.59 819.65 851.33 821.77 838.94 822.85 C 731.87 836.36 624.62 848.50 517.26 859.47 C 508.36 860.39 495.44 863.53 490.53 853.45 C 483.94 840.20 478.94 826.19 473.83 812.32 C 462.00 820.01 447.40 816.79 434.83 812.99 M 475.90 935.05 C 461.66 938.05 447.70 948.79 444.60 963.60 C 443.60 967.41 445.55 971.49 449.05 973.25 C 452.03 966.29 455.02 956.06 463.84 955.17 C 462.97 961.27 456.85 966.16 457.77 972.99 C 458.04 981.21 468.47 981.30 474.51 980.69 C 473.95 972.15 478.79 959.79 488.29 959.72 C 487.74 965.93 478.12 975.03 484.91 981.33 C 506.20 984.26 528.40 976.62 547.69 967.72 C 550.40 965.71 557.38 964.14 555.24 959.81 C 534.07 951.78 513.13 942.84 493.44 931.58 C 487.55 930.78 481.39 932.95 475.90 935.05 M 816.28 931.52 C 809.48 934.72 802.71 938.30 796.28 942.18 C 781.64 946.99 767.80 954.20 753.14 959.08 C 748.73 960.00 751.63 964.58 754.45 965.54 C 772.18 975.00 791.98 980.80 812.02 982.35 C 815.24 982.07 820.38 983.47 822.03 979.87 C 826.83 973.57 818.95 965.75 818.03 959.22 C 827.81 960.62 831.90 972.07 831.45 980.81 C 836.82 981.30 844.08 981.42 847.43 976.41 C 850.52 968.94 844.76 962.03 841.13 955.98 C 850.37 953.93 854.76 966.43 856.21 973.77 C 863.36 971.37 861.83 962.15 859.23 956.82 C 851.25 940.97 833.00 933.52 816.28 931.52 Z" />
<path fill="#020202" opacity="1.00" d=" M 518.41 301.50 C 541.35 299.61 564.96 300.11 587.11 306.93 C 598.73 310.50 608.50 320.35 608.85 333.00 C 610.20 357.49 602.46 383.46 585.76 401.76 C 568.80 419.33 542.27 421.64 519.25 419.58 C 499.65 417.99 476.10 412.54 467.35 392.68 C 457.87 368.33 459.06 339.89 468.94 315.90 C 482.06 303.93 501.74 304.26 518.41 301.50 M 503.33 314.16 C 492.23 314.78 475.58 317.31 473.89 330.91 C 469.44 349.28 467.50 369.38 474.65 387.33 C 478.98 398.66 490.27 406.77 502.24 407.84 C 517.04 412.73 533.45 412.18 548.91 410.83 C 568.82 408.79 585.84 394.80 592.60 376.24 C 595.32 368.17 598.75 359.93 598.70 351.30 C 600.44 343.27 600.90 334.31 597.27 326.72 C 592.68 317.90 582.01 315.15 572.91 313.99 C 550.40 308.47 525.81 309.37 503.33 314.16 Z" />
<path fill="#020202" opacity="1.00" d=" M 743.39 301.45 C 767.08 299.46 791.14 300.54 814.41 305.59 C 823.34 308.06 834.88 310.94 838.12 320.85 C 843.58 337.51 844.64 355.43 842.65 372.79 C 840.94 385.96 836.36 400.06 824.93 407.93 C 809.87 417.60 791.47 419.48 774.00 420.04 C 756.00 419.95 736.74 417.32 722.23 405.77 C 704.73 391.91 696.64 369.54 693.91 348.03 C 693.15 336.71 693.05 323.34 701.88 314.87 C 713.44 305.24 729.04 303.50 743.39 301.45 M 730.03 313.99 C 720.97 315.29 710.62 318.27 705.34 326.33 C 701.43 336.31 701.85 348.11 705.11 358.20 C 706.37 370.61 711.80 382.48 719.66 392.12 C 727.97 402.21 741.62 408.57 754.71 410.43 C 771.25 412.63 789.15 412.50 804.83 406.92 C 814.34 405.68 824.07 400.24 828.23 391.25 C 837.40 371.27 836.18 347.44 829.03 327.04 C 826.25 316.29 813.40 315.30 804.30 313.98 C 779.92 309.70 754.22 308.02 730.03 313.99 Z" />
<path fill="#020202" opacity="1.00" d=" M 704.63 667.62 C 705.39 668.71 705.03 674.70 708.87 676.16 C 705.80 674.29 702.52 673.78 700.13 676.93 C 701.76 673.59 700.56 670.41 697.88 668.10 C 700.26 669.41 702.87 670.29 704.63 667.62 Z" />
<path fill="#020202" opacity="1.00" d=" M 669.23 671.62 C 672.39 670.27 673.12 684.31 670.08 677.98 C 670.02 675.73 665.23 671.97 669.23 671.62 Z" />
<path fill="#020202" opacity="1.00" d=" M 643.44 673.49 C 646.04 671.67 652.00 676.72 646.57 675.55 C 640.33 675.06 647.05 677.90 649.68 678.43 C 653.72 683.04 642.19 685.65 641.91 680.43 C 644.28 681.68 651.70 680.84 645.84 679.30 C 642.16 680.28 638.84 674.03 643.44 673.49 Z" />
<path fill="#020202" opacity="1.00" d=" M 631.30 674.40 C 633.89 674.48 631.93 682.81 635.98 682.33 C 640.95 683.06 634.65 673.51 638.70 674.48 C 639.81 677.74 642.21 683.89 636.86 684.25 C 631.51 685.79 629.13 677.74 631.30 674.40 Z" />
<path fill="#020202" opacity="1.00" d=" M 841.31 705.03 C 847.34 704.33 849.81 708.99 843.13 710.68 C 843.44 707.04 844.66 707.79 841.31 705.03 Z" />
<path fill="#020202" opacity="1.00" d=" M 816.59 709.82 C 820.89 709.86 810.80 714.47 810.78 713.86 C 809.67 709.58 813.91 710.73 816.59 709.82 Z" />
<path fill="#020202" opacity="1.00" d=" M 845.53 711.44 C 849.18 709.73 849.50 715.10 846.59 716.13 C 848.48 708.25 841.91 719.87 840.33 713.98 C 843.05 709.17 841.53 718.14 845.53 711.44 Z" />
<path fill="#020202" opacity="1.00" d=" M 814.48 714.56 C 820.86 712.72 815.50 724.75 815.71 716.32 C 810.91 718.70 808.61 716.79 814.48 714.56 Z" />
<path fill="#020202" opacity="1.00" d=" M 181.83 768.84 C 208.57 740.09 244.78 717.63 285.00 716.40 C 310.92 716.13 336.86 723.98 359.20 736.70 C 361.76 742.58 354.72 737.91 352.02 736.98 C 319.66 720.79 280.53 715.35 246.42 729.43 C 195.69 749.00 161.29 794.06 131.48 837.37 C 128.97 837.09 123.73 832.34 125.88 829.01 C 126.64 830.88 129.06 835.19 131.01 832.17 C 145.86 809.55 162.61 787.96 181.83 768.84 Z" />
<path fill="#020202" opacity="1.00" d=" M 795.12 716.42 C 797.50 716.70 799.83 717.36 802.09 718.19 C 799.55 719.77 792.03 721.55 795.12 716.42 Z" />
<path fill="#020202" opacity="1.00" d=" M 841.96 718.30 C 846.78 724.94 847.09 713.97 848.04 720.99 C 849.32 729.00 840.78 715.66 842.18 722.80 C 840.14 725.73 839.52 719.06 841.96 718.30 Z" />
<path fill="#020202" opacity="1.00" d=" M 711.14 720.28 C 720.71 722.68 704.53 726.85 711.14 720.28 Z" />
<path fill="#020202" opacity="1.00" d=" M 759.04 720.04 C 761.37 720.89 765.48 720.87 765.88 723.91 C 759.91 719.63 756.85 730.31 759.04 720.04 Z" />
<path fill="#020202" opacity="1.00" d=" M 797.39 721.57 C 805.49 721.15 796.24 725.02 801.37 727.51 C 791.73 727.93 798.23 738.48 799.73 728.90 C 805.29 732.33 795.96 738.10 794.04 732.82 C 796.81 729.82 791.89 722.89 797.31 726.73 C 796.77 724.92 793.73 721.42 797.39 721.57 Z" />
<path fill="#020202" opacity="1.00" d=" M 843.23 724.68 C 845.03 724.23 846.56 726.77 847.89 727.92 C 845.13 729.68 838.30 727.41 843.23 724.68 Z" />
<path fill="#020202" opacity="1.00" d=" M 763.23 725.70 C 770.39 726.25 757.85 729.96 763.50 730.42 C 767.28 729.24 763.26 733.87 765.84 735.99 C 764.85 741.93 753.99 737.42 760.27 733.66 C 758.08 739.70 768.11 736.45 762.68 733.09 C 756.57 734.12 758.69 726.06 763.23 725.70 Z" />
<path fill="#020202" opacity="1.00" d=" M 647.35 727.34 C 650.17 728.23 649.38 730.97 648.32 732.96 C 653.89 732.10 651.95 739.90 647.11 738.07 C 654.19 729.55 640.13 742.50 645.28 734.29 C 649.26 732.80 643.26 729.37 647.35 727.34 Z" />
<path fill="#020202" opacity="1.00" d=" M 708.28 732.26 C 716.23 728.58 716.31 740.40 708.26 737.80 C 710.29 734.08 710.35 734.96 708.28 732.26 Z" />
<path fill="#020202" opacity="1.00" d=" M 646.29 739.62 C 655.20 737.41 643.72 743.85 652.11 743.56 C 649.25 744.71 645.35 745.18 645.02 748.99 C 647.49 751.41 650.82 749.00 649.56 745.87 C 655.63 749.60 643.52 755.42 644.19 748.14 C 646.25 745.50 643.66 740.12 646.29 739.62 Z" />
<path fill="#020202" opacity="1.00" d=" M 708.44 739.66 C 708.67 739.59 713.53 745.90 712.68 738.73 C 721.45 743.20 703.15 747.27 708.44 739.66 Z" />
<path fill="#020202" opacity="1.00" d=" M 595.16 740.30 C 597.45 740.30 605.07 739.54 599.59 741.45 C 592.75 743.23 604.72 745.44 600.12 748.03 C 596.25 749.98 606.59 749.98 601.12 750.92 C 590.75 753.90 600.41 745.91 595.16 740.30 Z" />
<path fill="#020202" opacity="1.00" d=" M 579.16 742.44 C 581.38 742.17 583.63 742.09 585.87 742.13 C 584.91 744.59 578.07 747.48 579.16 742.44 Z" />
<path fill="#020202" opacity="1.00" d=" M 612.36 744.58 C 614.58 743.19 612.43 748.50 615.04 747.75 C 618.41 747.92 614.78 742.02 618.71 744.34 C 621.06 751.36 607.92 750.15 612.36 744.58 Z" />
<path fill="#020202" opacity="1.00" d=" M 618.13 749.44 C 620.78 753.75 614.15 759.00 610.89 752.15 C 614.80 753.09 614.36 751.44 618.13 749.44 Z" />
<path fill="#020202" opacity="1.00" d=" M 551.43 750.57 C 556.89 750.69 547.44 753.55 553.46 754.66 C 552.79 757.90 541.71 757.13 549.36 753.90 C 544.19 752.25 547.73 750.09 551.43 750.57 Z" />
<path fill="#020202" opacity="1.00" d=" M 600.80 751.89 C 607.85 756.24 592.02 760.29 595.87 752.94 C 597.33 756.44 601.33 755.99 600.80 751.89 Z" />
<path fill="#020202" opacity="1.00" d=" M 551.62 756.70 C 560.70 763.18 540.78 764.95 548.25 757.75 C 547.44 763.74 553.71 761.60 551.62 756.70 Z" />
<path fill="#020202" opacity="1.00" d=" M 836.40 771.38 C 841.44 770.03 839.25 780.89 834.62 779.64 C 825.72 782.92 828.04 767.93 836.40 771.38 Z" />
<path fill="#020202" opacity="1.00" d=" M 819.37 773.41 C 824.07 776.91 815.80 785.64 811.06 781.74 C 809.33 775.25 813.30 772.69 819.37 773.41 Z" />
<path fill="#020202" opacity="1.00" d=" M 794.46 776.54 C 801.21 774.07 805.80 776.25 802.73 783.68 C 797.53 786.99 788.15 782.90 794.46 776.54 Z" />
<path fill="#020202" opacity="1.00" d=" M 776.37 778.42 C 784.94 773.66 786.81 786.89 778.25 786.32 C 773.48 788.56 774.66 779.81 776.37 778.42 Z" />
<path fill="#020202" opacity="1.00" d=" M 759.45 780.54 C 767.98 775.08 769.65 788.98 761.26 788.32 C 756.53 790.84 756.65 781.57 759.45 780.54 Z" />
<path fill="#020202" opacity="1.00" d=" M 742.21 782.35 C 749.03 779.43 752.54 783.56 751.02 790.29 C 745.13 789.67 739.12 790.47 742.21 782.35 Z" />
<path fill="#020202" opacity="1.00" d=" M 734.23 783.46 C 735.30 785.35 736.83 794.94 731.00 791.96 C 721.91 793.44 726.46 780.27 734.23 783.46 Z" />
<path fill="#020202" opacity="1.00" d=" M 716.40 785.38 C 721.16 783.86 720.09 795.74 715.01 793.80 C 707.89 796.16 709.47 782.73 716.40 785.38 Z" />
<path fill="#020202" opacity="1.00" d=" M 698.44 787.42 C 705.93 783.46 705.10 796.79 698.61 795.62 C 692.94 798.39 692.82 785.98 698.44 787.42 Z" />
<path fill="#020202" opacity="1.00" d=" M 682.41 789.38 C 689.21 786.79 687.76 793.81 687.81 798.35 C 684.74 797.21 681.48 797.56 678.29 797.78 C 677.98 794.12 677.01 788.58 682.41 789.38 Z" />
<path fill="#020202" opacity="1.00" d=" M 658.32 792.28 C 664.16 789.79 669.69 792.76 666.17 799.19 C 659.98 801.90 656.13 798.88 658.32 792.28 Z" />
<path fill="#020202" opacity="1.00" d=" M 648.40 793.41 C 652.43 792.80 652.31 804.09 646.65 801.62 C 637.73 804.62 640.10 790.06 648.40 793.41 Z" />
<path fill="#020202" opacity="1.00" d=" M 628.39 795.47 C 636.85 790.42 636.59 807.78 629.05 803.79 C 622.43 806.68 622.12 794.23 628.39 795.47 Z" />
<path fill="#020202" opacity="1.00" d=" M 612.43 797.39 C 620.92 792.06 617.02 812.17 617.16 802.03 C 616.21 794.44 617.57 807.94 612.24 805.49 C 605.82 808.57 605.98 795.26 612.43 797.39 Z" />
<path fill="#020202" opacity="1.00" d=" M 595.41 799.39 C 599.62 797.33 598.13 811.08 596.46 804.31 C 596.67 809.02 591.19 808.09 587.92 808.55 C 586.00 802.39 588.76 798.02 595.41 799.39 Z" />
<path fill="#020202" opacity="1.00" d=" M 578.47 801.33 C 582.16 800.67 580.83 811.88 576.05 810.00 C 567.25 812.25 570.33 797.89 578.47 801.33 Z" />
<path fill="#020202" opacity="1.00" d=" M 560.49 803.34 C 565.65 801.19 564.22 812.65 559.59 811.61 C 551.60 814.74 552.55 800.33 560.49 803.34 Z" />
<path fill="#020202" opacity="1.00" d=" M 542.44 805.40 C 549.28 802.27 548.90 815.59 542.14 813.40 C 535.55 816.52 535.98 803.37 542.44 805.40 Z" />
</g>
<g id="#259cebff">
<path fill="#259ceb" opacity="1.00" d=" M 636.39 219.42 C 700.64 214.78 773.55 230.13 816.14 281.98 C 784.46 275.81 751.38 273.80 719.61 280.66 C 704.18 284.10 687.52 289.59 678.41 303.49 C 660.53 302.00 642.37 301.56 624.52 303.53 C 616.63 292.93 604.74 286.29 592.12 282.94 C 559.83 274.00 525.59 275.59 492.86 281.12 C 529.14 241.52 584.11 224.10 636.39 219.42 Z" />
<path fill="#259ceb" opacity="1.00" d=" M 834.37 252.45 C 853.49 250.53 873.09 260.95 882.08 277.94 C 887.96 289.52 888.38 305.34 879.09 315.24 C 877.19 310.70 873.11 307.54 870.49 303.77 C 872.38 282.64 846.05 266.41 828.25 278.44 C 823.99 272.80 816.46 268.44 815.23 261.22 C 819.02 255.03 827.61 253.55 834.37 252.45 Z" />
<path fill="#259ceb" opacity="1.00" d=" M 458.35 253.39 C 469.40 251.75 482.14 253.66 490.58 261.46 C 491.99 269.68 482.67 274.44 478.02 279.96 C 460.17 265.45 431.61 282.58 433.44 304.68 C 430.51 308.11 427.14 311.54 425.12 315.85 C 404.31 291.56 430.67 256.05 458.35 253.39 Z" />
<path fill="#259ceb" opacity="1.00" d=" M 572.91 313.99 C 582.01 315.15 592.68 317.90 597.27 326.72 C 600.90 334.31 600.44 343.27 598.70 351.30 C 597.27 335.21 586.64 321.77 572.91 313.99 Z" />
<path fill="#259ceb" opacity="1.00" d=" M 705.34 326.33 C 710.62 318.27 720.97 315.29 730.03 313.99 C 714.05 322.66 705.41 340.42 705.11 358.20 C 701.85 348.11 701.43 336.31 705.34 326.33 Z" />
<path fill="#259ceb" opacity="1.00" d=" M 646.37 360.44 C 659.05 358.61 677.71 363.26 677.73 378.98 C 661.69 370.86 642.07 370.51 626.07 378.89 C 624.92 366.85 636.26 361.70 646.37 360.44 Z" />
<path fill="#259ceb" opacity="1.00" d=" M 860.37 400.52 C 858.66 395.24 867.97 388.23 868.83 396.13 C 879.91 450.64 878.57 506.60 879.30 561.94 C 880.81 570.55 887.47 576.95 891.75 584.27 C 919.08 626.85 935.59 678.14 929.92 729.02 C 924.04 718.41 915.06 710.17 904.40 704.62 C 899.96 698.07 891.76 694.94 888.60 687.39 C 882.00 672.82 877.24 656.58 866.30 644.59 C 861.25 647.76 852.55 638.60 852.07 646.14 C 841.14 630.76 830.75 614.91 818.35 600.65 C 810.03 591.46 795.91 592.76 785.14 596.10 C 683.86 604.89 582.50 614.26 481.66 627.40 C 471.30 625.38 459.89 626.73 450.65 632.04 C 450.45 628.00 449.98 623.95 448.73 620.10 C 439.03 624.83 435.28 636.18 431.59 645.59 C 425.22 665.82 421.69 688.12 428.26 708.76 C 427.50 709.16 426.74 709.53 425.95 709.87 C 412.98 712.19 402.50 721.25 395.88 732.30 C 384.45 720.66 380.21 704.10 376.99 688.58 C 379.41 648.90 397.65 610.70 421.10 579.22 C 439.85 566.26 447.89 543.25 445.68 521.01 C 445.65 487.59 445.20 453.92 450.11 420.83 C 463.40 443.66 490.43 454.07 515.68 456.38 C 539.58 459.31 563.91 453.40 584.73 441.58 C 589.26 451.42 598.74 457.93 609.31 459.60 C 610.87 472.47 610.37 486.39 616.98 498.00 C 624.07 509.95 642.34 511.59 651.82 501.61 C 660.74 511.23 677.88 510.25 685.38 499.39 C 693.44 487.78 691.58 472.73 694.39 459.51 C 704.60 457.33 713.68 451.30 718.46 441.86 C 744.52 457.61 777.14 460.97 806.43 453.51 C 831.67 447.80 860.23 428.97 860.37 400.52 Z" />
<path fill="#259ceb" opacity="1.00" d=" M 440.48 840.01 C 442.66 829.36 451.17 838.66 455.72 842.24 C 473.39 851.13 477.57 873.64 495.01 882.97 C 512.46 892.42 533.00 889.15 551.79 886.81 C 628.21 877.04 704.11 863.73 780.10 851.13 C 801.98 847.51 824.16 842.85 846.43 845.58 C 854.19 846.77 861.66 844.09 869.31 843.48 C 857.30 888.44 820.78 925.11 776.02 937.77 C 746.12 944.23 716.06 950.81 685.41 952.47 C 632.79 956.40 580.12 948.79 528.99 936.80 C 484.64 923.07 452.52 883.96 440.48 840.01 Z" />
</g>
<g id="#428bc6ff">
<path fill="#428bc6" opacity="1.00" d=" M 431.93 329.90 C 433.90 321.84 437.10 311.39 446.75 310.13 C 446.09 313.41 445.50 316.81 443.91 319.78 C 438.96 321.87 435.28 325.85 431.93 329.90 Z" />
<path fill="#428bc6" opacity="1.00" d=" M 629.37 390.31 C 640.76 380.00 662.19 379.56 673.42 390.31 C 665.85 393.74 657.75 386.54 649.61 388.48 C 642.76 387.42 635.52 393.42 629.37 390.31 Z" />
<path fill="#428bc6" opacity="1.00" d=" M 749.03 602.89 C 764.70 600.95 780.85 601.70 796.05 597.10 C 803.17 596.53 812.00 597.15 816.23 603.84 C 840.78 635.16 863.21 668.43 881.06 704.04 C 874.91 707.47 869.17 712.16 867.77 719.52 C 861.37 713.32 858.21 703.44 857.51 694.49 C 855.24 693.86 852.88 694.27 850.59 694.51 C 739.07 707.25 627.60 720.46 516.06 733.08 C 508.31 733.10 513.59 742.09 514.69 746.29 C 516.39 752.89 518.61 759.36 520.27 765.98 C 516.28 771.97 500.89 774.69 500.03 764.77 C 488.36 721.56 472.15 679.69 458.75 637.08 C 464.94 634.20 472.72 631.34 479.06 635.33 C 478.79 633.92 478.46 632.53 478.13 631.15 C 568.22 619.94 658.59 610.91 749.03 602.89 M 579.91 657.97 C 572.79 660.89 568.58 671.89 577.01 675.95 C 580.88 680.80 587.66 682.06 593.37 683.65 C 619.81 689.53 647.22 688.98 674.01 686.07 C 695.62 683.65 717.88 680.65 737.36 670.36 C 741.83 667.47 747.70 664.58 748.88 658.91 C 752.18 652.70 746.46 646.27 740.64 644.43 C 716.82 636.11 691.15 636.33 666.26 637.50 C 636.76 639.64 606.26 643.68 579.91 657.97 Z" />
<path fill="#428bc6" opacity="1.00" d=" M 831.37 708.29 C 834.71 707.96 827.96 713.07 833.05 714.67 C 830.33 713.87 829.88 715.83 829.26 717.95 C 825.86 714.37 824.02 707.06 831.37 708.29 Z" />
<path fill="#428bc6" opacity="1.00" d=" M 694.38 722.28 C 698.37 723.75 699.55 731.90 695.75 736.75 C 698.19 737.57 699.41 738.41 696.51 739.63 C 702.23 742.45 695.16 749.63 691.56 745.40 C 690.42 742.70 690.51 738.55 693.22 736.71 C 691.23 734.54 691.54 728.20 694.38 722.28 Z" />
<path fill="#428bc6" opacity="1.00" d=" M 500.47 780.73 C 500.86 770.31 514.10 774.28 521.03 772.78 C 523.14 791.38 520.74 810.46 523.36 828.93 C 527.08 833.45 535.43 829.31 540.97 829.85 C 643.21 819.22 745.23 806.77 847.29 794.60 C 845.90 798.40 839.63 797.13 836.22 798.32 C 732.63 810.65 629.00 824.44 525.17 833.51 C 517.58 831.14 509.81 834.91 502.08 833.94 C 499.77 832.86 495.82 832.03 496.41 828.70 C 496.86 812.66 498.73 796.67 500.47 780.73 Z" />
</g>
<g id="#1c1e1fff">
<path fill="#1c1e1f" opacity="1.00" d=" M 857.17 309.72 C 873.51 312.53 874.82 333.26 877.85 346.38 C 879.66 357.02 881.04 368.00 879.99 378.80 C 875.74 381.10 869.29 379.10 864.56 377.92 C 866.91 355.04 863.73 331.72 857.17 309.72 Z" />
<path fill="#1c1e1f" opacity="1.00" d=" M 431.93 329.90 C 435.28 325.85 438.96 321.87 443.91 319.78 C 439.27 338.97 439.73 358.41 440.12 377.90 C 436.95 380.38 430.44 380.09 425.94 380.10 C 425.31 363.33 426.01 345.69 431.93 329.90 Z" />
<path fill="#1c1e1f" opacity="1.00" d=" M 730.96 336.95 C 747.93 324.91 773.82 333.67 781.30 352.72 C 791.80 374.94 779.00 404.50 754.71 410.43 C 741.62 408.57 727.97 402.21 719.66 392.12 C 710.76 373.95 712.81 348.69 730.96 336.95 M 756.43 341.47 C 743.97 345.15 748.65 366.72 761.92 363.08 C 775.15 359.91 769.70 337.62 756.43 341.47 Z" />
<path fill="#1c1e1f" opacity="1.00" d=" M 525.59 358.63 C 529.55 341.23 547.92 327.96 565.77 332.19 C 585.27 336.37 595.60 357.54 592.60 376.24 C 585.84 394.80 568.82 408.79 548.91 410.83 C 550.05 410.30 552.06 409.68 549.71 409.22 C 529.04 403.17 519.38 378.21 525.59 358.63 M 565.39 341.37 C 557.37 343.15 554.86 354.02 560.11 359.89 C 564.89 366.32 576.16 363.45 577.84 355.81 C 580.39 348.40 573.41 339.16 565.39 341.37 Z" />
<path fill="#1c1e1f" opacity="1.00" d=" M 649.61 388.48 C 657.75 386.54 665.85 393.74 673.42 390.31 C 678.87 394.82 680.29 403.51 675.95 409.24 C 670.17 406.57 666.99 413.46 663.65 416.83 C 655.67 417.61 647.23 419.33 639.42 416.74 C 636.26 413.80 633.03 407.17 627.90 410.58 C 622.08 405.26 624.49 395.49 629.37 390.31 C 635.52 393.42 642.76 387.42 649.61 388.48 Z" />
<path fill="#1c1e1f" opacity="1.00" d=" M 579.91 657.97 C 606.26 643.68 636.76 639.64 666.26 637.50 C 691.15 636.33 716.82 636.11 740.64 644.43 C 746.46 646.27 752.18 652.70 748.88 658.91 C 691.60 664.68 634.34 670.64 577.01 675.95 C 568.58 671.89 572.79 660.89 579.91 657.97 M 722.44 643.48 C 715.79 647.46 707.73 643.05 701.18 646.99 C 693.81 647.66 680.54 644.11 678.18 651.84 C 675.96 647.83 670.13 647.73 666.51 649.84 C 670.07 657.85 657.87 643.26 659.11 654.12 C 677.87 653.23 704.69 650.00 720.50 648.32 C 719.25 642.60 723.94 646.30 725.58 648.90 C 726.32 645.72 727.25 641.27 722.44 643.48 M 652.47 650.49 C 648.78 650.71 645.55 653.96 642.01 651.33 C 638.11 659.20 651.61 655.41 651.52 653.90 C 657.13 661.17 661.21 647.45 652.47 650.49 M 725.33 650.18 C 719.02 650.72 722.97 659.45 727.93 657.18 C 734.10 657.49 729.90 648.06 725.33 650.18 M 719.48 651.51 C 718.49 654.78 715.45 652.78 713.16 652.28 C 712.77 655.75 715.55 660.20 715.47 654.45 C 720.47 659.41 723.53 654.47 719.48 651.51 M 635.29 652.39 C 627.61 653.83 634.35 658.12 638.87 658.02 C 638.02 656.14 638.15 651.64 635.29 652.39 M 624.37 653.46 C 616.57 652.79 621.30 659.97 621.97 664.31 C 623.32 670.35 629.44 660.96 623.94 659.86 C 628.41 656.04 634.14 651.22 624.37 653.46 M 701.39 653.59 C 697.20 653.19 697.23 660.02 692.92 658.08 C 690.87 655.04 698.55 654.06 693.92 654.04 C 687.16 652.00 692.78 663.17 696.82 658.95 C 698.44 656.64 707.89 653.80 701.39 653.59 M 615.26 654.45 C 608.48 652.98 609.25 660.29 605.76 663.91 C 603.87 661.99 602.53 659.63 600.87 657.53 C 597.61 659.58 599.31 663.18 603.01 662.34 C 596.99 662.73 603.97 670.34 607.38 668.49 C 612.84 668.20 609.14 656.82 614.86 661.06 C 619.77 666.18 618.63 655.15 615.26 654.45 M 676.21 655.62 C 670.88 654.30 673.20 663.88 677.27 660.38 C 680.86 655.94 687.24 663.78 689.27 657.93 C 690.12 652.49 683.89 654.68 686.55 659.18 C 683.23 656.58 681.80 653.58 676.21 655.62 M 595.44 656.42 C 589.66 655.59 592.13 662.50 592.34 666.00 C 594.82 663.20 603.91 654.17 595.44 656.42 M 636.49 660.56 C 633.31 663.21 626.93 661.70 626.15 666.64 C 631.10 666.36 636.20 666.40 640.98 664.91 C 640.73 662.34 639.77 658.64 636.49 660.56 M 614.00 662.16 C 613.79 672.06 623.72 664.92 614.00 662.16 M 596.41 664.45 C 587.79 672.41 603.89 669.56 596.41 664.45 Z" />
<path fill="#1c1e1f" opacity="1.00" d=" M 226.91 725.87 C 266.88 703.55 317.26 706.51 356.84 728.07 C 358.55 730.47 358.35 733.88 359.20 736.70 C 336.86 723.98 310.92 716.13 285.00 716.40 C 244.78 717.63 208.57 740.09 181.83 768.84 C 162.61 787.96 145.86 809.55 131.01 832.17 C 129.06 835.19 126.64 830.88 125.88 829.01 C 152.68 788.96 183.44 748.82 226.91 725.87 Z" />
<path fill="#1c1e1f" opacity="1.00" d=" M 549.26 739.40 C 553.03 738.82 553.47 741.94 550.22 743.68 C 556.49 747.31 553.43 749.01 548.27 746.18 C 552.36 752.04 543.52 749.43 547.39 745.32 C 550.05 743.70 545.85 740.53 549.26 739.40 Z" />
<path fill="#1c1e1f" opacity="1.00" d=" M 831.44 744.56 C 833.83 744.06 836.46 744.11 838.67 745.31 C 838.81 752.68 820.13 746.48 831.44 744.56 Z" />
<path fill="#1c1e1f" opacity="1.00" d=" M 795.41 749.50 C 797.78 749.23 800.72 748.54 802.69 750.30 C 802.61 756.09 785.60 752.09 795.41 749.50 Z" />
<path fill="#1c1e1f" opacity="1.00" d=" M 570.49 775.56 C 573.26 774.90 576.45 774.66 579.03 776.11 C 579.12 781.22 565.90 779.30 570.49 775.56 Z" />
</g>
<g id="#dae6ecff">
<path fill="#dae6ec" opacity="1.00" d=" M 473.89 330.91 C 475.58 317.31 492.23 314.78 503.33 314.16 C 477.56 337.88 475.75 383.91 502.24 407.84 C 490.27 406.77 478.98 398.66 474.65 387.33 C 467.50 369.38 469.44 349.28 473.89 330.91 Z" />
<path fill="#dae6ec" opacity="1.00" d=" M 804.30 313.98 C 813.40 315.30 826.25 316.29 829.03 327.04 C 836.18 347.44 837.40 371.27 828.23 391.25 C 824.07 400.24 814.34 405.68 804.83 406.92 C 827.73 382.41 828.99 335.43 800.22 314.99 C 801.55 314.60 802.91 314.27 804.30 313.98 Z" />
<path fill="#dae6ec" opacity="1.00" d=" M 453.03 635.82 C 459.31 630.52 471.01 628.14 478.13 631.15 C 478.46 632.53 478.79 633.92 479.06 635.33 C 472.72 631.34 464.94 634.20 458.75 637.08 C 472.15 679.69 488.36 721.56 500.03 764.77 C 500.89 774.69 516.28 771.97 520.27 765.98 C 520.62 768.22 520.94 770.49 521.03 772.78 C 514.10 774.28 500.86 770.31 500.47 780.73 C 498.73 796.67 496.86 812.66 496.41 828.70 C 495.82 832.03 499.77 832.86 502.08 833.94 C 498.73 833.62 493.54 833.09 493.46 828.68 C 494.24 809.81 497.40 791.00 498.07 772.14 C 490.35 740.25 479.15 709.28 469.06 678.06 C 463.69 664.00 460.62 648.94 453.03 635.82 Z" />
<path fill="#dae6ec" opacity="1.00" d=" M 719.48 651.51 C 723.53 654.47 720.47 659.41 715.47 654.45 C 715.55 660.20 712.77 655.75 713.16 652.28 C 715.45 652.78 718.49 654.78 719.48 651.51 Z" />
<path fill="#dae6ec" opacity="1.00" d=" M 701.39 653.59 C 707.89 653.80 698.44 656.64 696.82 658.95 C 692.78 663.17 687.16 652.00 693.92 654.04 C 698.55 654.06 690.87 655.04 692.92 658.08 C 697.23 660.02 697.20 653.19 701.39 653.59 Z" />
<path fill="#dae6ec" opacity="1.00" d=" M 849.63 696.48 C 851.61 696.50 855.16 695.57 855.45 698.46 C 855.62 706.86 854.38 715.28 855.22 723.70 C 855.12 726.72 854.95 729.76 854.49 732.76 C 744.49 747.06 633.95 757.47 523.93 771.73 C 519.98 760.30 515.93 748.36 517.26 736.05 C 519.12 734.44 521.75 734.45 524.06 734.07 C 632.59 721.62 741.09 708.82 849.63 696.48 M 841.31 705.03 C 844.66 707.79 843.44 707.04 843.13 710.68 C 849.81 708.99 847.34 704.33 841.31 705.03 M 831.37 708.29 C 824.02 707.06 825.86 714.37 829.26 717.95 C 829.88 715.83 830.33 713.87 833.05 714.67 C 827.96 713.07 834.71 707.96 831.37 708.29 M 816.59 709.82 C 813.91 710.73 809.67 709.58 810.78 713.86 C 810.80 714.47 820.89 709.86 816.59 709.82 M 779.28 711.21 C 774.57 711.42 774.42 719.41 779.75 717.06 C 784.91 716.59 784.51 710.32 779.28 711.21 M 845.53 711.44 C 841.53 718.14 843.05 709.17 840.33 713.98 C 841.91 719.87 848.48 708.25 846.59 716.13 C 849.50 715.10 849.18 709.73 845.53 711.44 M 814.48 714.56 C 808.61 716.79 810.91 718.70 815.71 716.32 C 815.50 724.75 820.86 712.72 814.48 714.56 M 745.05 716.45 C 739.54 720.17 747.38 721.11 741.61 723.76 C 739.13 727.96 744.59 728.51 747.50 727.59 C 745.42 729.25 741.23 728.76 741.11 732.14 C 740.16 735.97 747.96 734.40 746.78 738.70 C 741.69 741.30 745.21 732.75 741.08 737.22 C 741.27 744.06 752.61 740.52 748.03 734.34 C 744.76 731.43 753.79 722.25 745.82 722.31 C 748.26 719.93 749.32 717.16 745.05 716.45 M 795.12 716.42 C 792.03 721.55 799.55 719.77 802.09 718.19 C 799.83 717.36 797.50 716.70 795.12 716.42 M 781.45 717.25 C 778.04 716.65 772.92 720.09 779.09 719.53 C 776.93 720.74 774.77 723.49 778.86 723.31 C 774.17 725.82 774.59 733.41 781.03 731.08 C 774.18 732.77 775.65 738.49 782.62 737.07 C 782.36 732.75 784.61 728.52 782.97 724.26 C 776.17 727.21 787.21 716.44 781.45 717.25 M 725.46 718.34 C 724.26 721.60 723.66 728.86 726.35 730.74 C 718.76 735.01 733.37 739.43 723.83 739.23 C 723.56 743.41 729.06 742.32 731.86 742.88 C 727.18 739.52 734.83 735.02 730.78 731.15 C 727.57 727.08 735.58 715.16 725.46 718.34 M 841.96 718.30 C 839.52 719.06 840.14 725.73 842.18 722.80 C 840.78 715.66 849.32 729.00 848.04 720.99 C 847.09 713.97 846.78 724.94 841.96 718.30 M 827.46 719.42 C 826.20 723.17 822.95 734.46 832.93 730.21 C 826.93 726.82 837.73 716.81 827.46 719.42 M 711.14 720.28 C 704.53 726.85 720.71 722.68 711.14 720.28 M 759.04 720.04 C 756.85 730.31 759.91 719.63 765.88 723.91 C 765.48 720.87 761.37 720.89 759.04 720.04 M 797.39 721.57 C 793.73 721.42 796.77 724.92 797.31 726.73 C 791.89 722.89 796.81 729.82 794.04 732.82 C 795.96 738.10 805.29 732.33 799.73 728.90 C 798.23 738.48 791.73 727.93 801.37 727.51 C 796.24 725.02 805.49 721.15 797.39 721.57 M 812.42 721.40 C 809.58 723.92 808.27 735.88 816.03 732.17 C 821.43 732.06 810.81 727.23 816.21 726.20 C 820.84 723.91 816.15 718.89 812.42 721.40 M 694.38 722.28 C 691.54 728.20 691.23 734.54 693.22 736.71 C 690.51 738.55 690.42 742.70 691.56 745.40 C 695.16 749.63 702.23 742.45 696.51 739.63 C 699.41 738.41 698.19 737.57 695.75 736.75 C 699.55 731.90 698.37 723.75 694.38 722.28 M 676.41 723.34 C 673.38 725.23 673.88 729.06 677.65 729.38 C 673.87 732.14 674.92 737.32 674.67 741.42 C 679.37 741.95 670.47 746.34 675.08 747.95 C 683.77 751.02 683.09 738.55 680.01 733.81 C 680.19 729.62 684.48 721.84 676.41 723.34 M 843.23 724.68 C 838.30 727.41 845.13 729.68 847.89 727.92 C 846.56 726.77 845.03 724.23 843.23 724.68 M 663.47 725.94 C 659.75 726.64 660.15 728.79 662.77 730.78 C 658.16 731.72 658.58 736.70 662.89 737.51 C 655.91 737.07 664.64 741.02 659.05 742.96 C 666.97 741.79 662.14 753.12 660.24 744.69 C 654.26 749.17 667.01 753.21 666.13 746.17 C 662.99 740.56 668.63 731.77 663.47 725.94 M 763.23 725.70 C 758.69 726.06 756.57 734.12 762.68 733.09 C 768.11 736.45 758.08 739.70 760.27 733.66 C 753.99 737.42 764.85 741.93 765.84 735.99 C 763.26 733.87 767.28 729.24 763.50 730.42 C 757.85 729.96 770.39 726.25 763.23 725.70 M 708.20 726.70 C 703.32 731.61 715.76 733.14 715.21 728.00 C 715.61 724.39 710.44 726.30 708.20 726.70 M 647.35 727.34 C 643.26 729.37 649.26 732.80 645.28 734.29 C 640.13 742.50 654.19 729.55 647.11 738.07 C 651.95 739.90 653.89 732.10 648.32 732.96 C 649.38 730.97 650.17 728.23 647.35 727.34 M 631.28 729.20 C 627.18 731.12 632.22 734.04 628.85 735.96 C 624.90 738.69 633.81 741.91 628.05 742.75 C 631.31 745.90 624.29 752.28 630.11 754.22 C 636.84 756.31 635.42 746.69 635.06 745.06 C 626.96 746.06 640.60 741.24 633.33 740.82 C 637.12 739.48 636.04 733.99 631.84 735.29 C 635.07 733.36 635.60 729.91 631.28 729.20 M 613.34 731.05 C 609.28 732.76 611.16 737.64 615.06 737.76 C 611.59 736.79 609.11 740.55 613.83 740.10 C 605.14 744.56 622.75 744.45 616.69 739.91 C 619.22 739.06 620.01 728.49 613.34 731.05 M 708.28 732.26 C 710.35 734.96 710.29 734.08 708.26 737.80 C 716.31 740.40 716.23 728.58 708.28 732.26 M 564.42 736.30 C 560.77 739.20 565.83 744.10 563.37 747.87 C 566.24 748.29 572.56 748.62 567.65 745.44 C 570.46 742.15 570.92 733.94 564.42 736.30 M 549.26 739.40 C 545.85 740.53 550.05 743.70 547.39 745.32 C 543.52 749.43 552.36 752.04 548.27 746.18 C 553.43 749.01 556.49 747.31 550.22 743.68 C 553.47 741.94 553.03 738.82 549.26 739.40 M 646.29 739.62 C 643.66 740.12 646.25 745.50 644.19 748.14 C 643.52 755.42 655.63 749.60 649.56 745.87 C 650.82 749.00 647.49 751.41 645.02 748.99 C 645.35 745.18 649.25 744.71 652.11 743.56 C 643.72 743.85 655.20 737.41 646.29 739.62 M 708.44 739.66 C 703.15 747.27 721.45 743.20 712.68 738.73 C 713.53 745.90 708.67 739.59 708.44 739.66 M 534.06 739.96 C 533.70 744.55 527.59 748.97 533.13 752.45 C 532.47 753.38 529.03 759.73 531.06 763.97 C 534.86 768.74 542.22 759.61 535.16 758.62 C 535.77 761.42 535.96 764.06 532.28 762.89 C 530.16 757.43 542.36 758.19 535.23 755.63 C 538.99 751.16 536.95 743.38 534.06 739.96 M 595.16 740.30 C 600.41 745.91 590.75 753.90 601.12 750.92 C 606.59 749.98 596.25 749.98 600.12 748.03 C 604.72 745.44 592.75 743.23 599.59 741.45 C 605.07 739.54 597.45 740.30 595.16 740.30 M 579.16 742.44 C 578.07 747.48 584.91 744.59 585.87 742.13 C 583.63 742.09 581.38 742.17 579.16 742.44 M 612.36 744.58 C 607.92 750.15 621.06 751.36 618.71 744.34 C 614.78 742.02 618.41 747.92 615.04 747.75 C 612.43 748.50 614.58 743.19 612.36 744.58 M 565.38 749.24 C 561.33 752.03 562.96 756.97 568.19 755.36 C 562.33 756.84 561.92 761.72 568.78 761.04 C 570.03 758.54 572.78 746.89 565.38 749.24 M 618.13 749.44 C 614.36 751.44 614.80 753.09 610.89 752.15 C 614.15 759.00 620.78 753.75 618.13 749.44 M 551.43 750.57 C 547.73 750.09 544.19 752.25 549.36 753.90 C 541.71 757.13 552.79 757.90 553.46 754.66 C 547.44 753.55 556.89 750.69 551.43 750.57 M 600.80 751.89 C 601.33 755.99 597.33 756.44 595.87 752.94 C 592.02 760.29 607.85 756.24 600.80 751.89 M 551.62 756.70 C 553.71 761.60 547.44 763.74 548.25 757.75 C 540.78 764.95 560.70 763.18 551.62 756.70 Z" />
</g>
<g id="#2f9204ff">
<path fill="#2f9204" opacity="1.00" d=" M 938.29 347.15 C 945.25 347.06 954.18 344.49 960.03 348.94 C 963.05 366.04 963.69 383.64 966.23 400.87 C 978.35 401.81 990.71 401.45 1002.87 400.99 C 1004.10 385.03 1004.78 369.00 1005.73 353.01 C 1005.74 350.03 1007.53 346.43 1010.98 346.69 C 1025.32 346.55 1039.68 346.64 1054.03 346.65 C 1057.13 346.23 1059.32 348.96 1059.32 351.87 C 1060.95 368.18 1061.57 384.60 1063.40 400.89 C 1075.10 402.02 1087.18 401.36 1098.98 400.99 C 1100.54 384.56 1101.27 368.03 1102.65 351.58 C 1102.90 348.45 1105.88 346.25 1108.96 346.64 C 1118.33 346.78 1127.73 346.28 1137.09 346.92 C 1141.58 363.35 1118.26 351.31 1111.35 357.08 C 1110.19 373.32 1109.41 389.61 1107.81 405.81 C 1107.37 411.35 1100.68 410.29 1096.75 410.60 C 1084.51 410.17 1072.26 410.80 1060.03 410.29 C 1056.39 410.61 1054.16 407.22 1054.12 403.94 C 1052.73 388.06 1051.91 372.12 1050.55 356.23 C 1038.56 355.57 1026.38 355.22 1014.41 356.23 C 1013.93 372.81 1012.88 389.39 1011.81 405.94 C 1012.04 409.46 1008.18 410.69 1005.32 410.50 C 991.36 410.22 977.39 410.46 963.44 410.40 C 960.17 410.55 957.37 408.06 957.26 404.78 C 955.08 388.71 954.21 372.45 951.78 356.42 C 949.26 356.11 946.72 356.11 944.22 356.40 C 941.20 372.74 940.54 389.50 938.05 405.94 C 937.90 409.07 935.03 410.65 932.16 410.43 C 920.43 410.87 908.69 410.12 896.95 410.35 C 892.59 411.30 893.30 405.91 893.07 403.08 C 904.99 402.26 917.00 403.00 928.93 402.17 C 931.39 387.38 932.39 372.30 934.36 357.40 C 934.98 353.88 934.49 349.01 938.29 347.15 Z" />
<path fill="#2f9204" opacity="1.00" d=" M 350.38 437.53 C 375.96 434.31 386.21 462.70 402.99 476.02 C 408.64 478.46 407.48 484.85 406.85 489.83 C 390.41 482.36 381.63 465.90 369.42 453.59 C 362.97 446.43 350.82 444.80 343.43 451.41 C 328.27 465.15 323.03 486.98 306.41 499.39 C 296.10 507.25 280.79 507.43 270.47 499.51 C 253.58 488.25 248.07 465.85 230.62 455.38 C 220.36 450.50 210.03 457.98 203.59 465.57 C 190.34 479.88 180.28 498.06 162.65 507.62 C 148.57 515.03 130.02 511.31 119.25 499.81 C 120.85 497.15 123.71 491.19 127.23 494.74 C 136.38 502.38 150.42 504.33 160.63 497.64 C 180.62 484.77 189.58 460.38 209.82 447.84 C 218.32 442.15 230.16 442.67 238.35 448.68 C 255.17 460.03 260.89 482.09 278.33 492.65 C 289.11 499.50 302.84 492.96 309.09 483.05 C 321.40 467.02 328.50 442.85 350.38 437.53 Z" />
<path fill="#2f9204" opacity="1.00" d=" M 241.43 624.49 C 283.12 621.88 322.72 641.97 353.99 668.02 C 358.76 670.86 356.11 677.04 354.90 681.21 C 326.67 657.29 292.80 637.30 255.04 634.88 C 216.78 632.58 179.72 651.45 154.61 679.61 C 144.00 690.31 136.10 703.25 127.03 715.17 C 124.73 713.15 122.52 710.86 121.31 708.02 C 146.56 664.78 189.42 627.30 241.43 624.49 Z" />
<path fill="#2f9204" opacity="1.00" d=" M 526.20 774.92 C 536.95 788.08 531.12 805.56 532.80 821.01 C 527.94 816.24 530.02 809.00 529.73 802.96 C 531.34 792.81 518.19 784.84 526.20 774.92 Z" />
</g>
<g id="#fdbc05ff">
<path fill="#fdbc05" opacity="1.00" d=" M 354.42 356.41 C 384.19 357.92 388.39 394.86 409.04 409.93 C 414.43 412.00 412.74 418.24 411.00 422.36 C 389.13 412.74 383.68 387.04 367.53 371.48 C 361.30 364.80 349.78 365.00 343.43 371.43 C 326.22 387.53 321.03 413.49 300.98 427.01 C 289.10 435.07 272.57 432.30 262.73 422.28 C 248.33 407.60 242.80 386.34 227.62 372.34 C 220.23 365.81 209.07 369.39 203.41 376.41 C 189.83 390.85 181.11 410.08 163.97 420.96 C 149.89 430.35 130.01 425.86 119.05 413.77 C 119.01 410.87 122.13 408.37 124.12 406.29 C 133.07 413.68 145.54 419.60 156.93 413.88 C 177.18 402.18 184.24 377.31 202.91 363.87 C 211.45 357.52 223.92 357.00 232.52 363.50 C 250.68 377.46 254.80 402.30 271.81 417.21 C 281.04 425.11 295.64 421.95 302.71 412.70 C 319.83 394.29 326.00 360.83 354.42 356.41 Z" />
<path fill="#fdbc05" opacity="1.00" d=" M 248.42 653.48 C 286.70 650.67 323.82 666.49 354.04 688.91 C 355.48 692.17 354.13 696.29 353.95 699.83 C 344.01 694.78 335.45 687.38 325.36 682.58 C 292.76 664.50 251.90 656.92 216.57 671.57 C 179.14 686.02 151.84 717.54 130.04 750.04 C 127.75 755.67 123.70 748.97 122.32 746.03 C 149.36 700.24 192.94 658.14 248.42 653.48 Z" />
</g>
<g id="#016ccbff">
<path fill="#016ccb" opacity="1.00" d=" M 438.26 396.21 C 438.65 390.05 444.98 396.12 445.55 399.41 C 452.78 420.23 472.12 434.71 493.00 440.03 C 522.50 448.15 555.38 446.57 583.01 432.91 C 585.22 434.68 584.83 438.80 584.73 441.58 C 563.91 453.40 539.58 459.31 515.68 456.38 C 490.43 454.07 463.40 443.66 450.11 420.83 C 445.20 453.92 445.65 487.59 445.68 521.01 C 447.89 543.25 439.85 566.26 421.10 579.22 C 425.41 569.91 433.86 562.19 433.93 551.18 C 432.31 552.98 428.22 560.03 428.75 554.08 C 428.79 501.40 428.63 448.18 438.26 396.21 Z" />
<path fill="#016ccb" opacity="1.00" d=" M 808.86 440.85 C 831.10 435.88 851.02 421.57 860.37 400.52 C 860.23 428.97 831.67 447.80 806.43 453.51 C 777.14 460.97 744.52 457.61 718.46 441.86 C 718.59 438.64 719.03 435.45 719.47 432.26 C 746.80 446.28 779.35 448.28 808.86 440.85 Z" />
<path fill="#016ccb" opacity="1.00" d=" M 431.59 645.59 C 435.28 636.18 439.03 624.83 448.73 620.10 C 449.98 623.95 450.45 628.00 450.65 632.04 C 443.68 645.18 441.43 660.31 438.74 674.81 C 435.15 670.40 438.49 662.58 436.93 656.92 C 428.96 673.70 435.32 693.24 440.74 709.97 C 435.81 709.79 430.88 709.50 425.95 709.87 C 426.74 709.53 427.50 709.16 428.26 708.76 C 421.69 688.12 425.22 665.82 431.59 645.59 Z" />
<path fill="#016ccb" opacity="1.00" d=" M 852.07 646.14 C 852.55 638.60 861.25 647.76 866.30 644.59 C 877.24 656.58 882.00 672.82 888.60 687.39 C 891.76 694.94 899.96 698.07 904.40 704.62 C 898.16 703.18 891.56 703.55 885.43 702.62 C 875.67 683.06 863.48 664.77 852.07 646.14 Z" />
<path fill="#016ccb" opacity="1.00" d=" M 390.93 753.05 C 378.45 734.59 374.46 710.49 376.99 688.58 C 380.21 704.10 384.45 720.66 395.88 732.30 C 393.78 739.11 391.59 745.90 390.93 753.05 Z" />
<path fill="#016ccb" opacity="1.00" d=" M 434.83 812.99 C 447.40 816.79 462.00 820.01 473.83 812.32 C 478.94 826.19 483.94 840.20 490.53 853.45 C 495.44 863.53 508.36 860.39 517.26 859.47 C 624.62 848.50 731.87 836.36 838.94 822.85 C 851.33 821.77 863.59 819.65 875.77 817.25 C 874.94 826.05 872.89 835.96 869.31 843.48 C 861.66 844.09 854.19 846.77 846.43 845.58 C 824.16 842.85 801.98 847.51 780.10 851.13 C 704.11 863.73 628.21 877.04 551.79 886.81 C 533.00 889.15 512.46 892.42 495.01 882.97 C 477.57 873.64 473.39 851.13 455.72 842.24 C 451.17 838.66 442.66 829.36 440.48 840.01 C 438.19 831.10 435.25 822.23 434.83 812.99 Z" />
<path fill="#016ccb" opacity="1.00" d=" M 528.99 936.80 C 580.12 948.79 632.79 956.40 685.41 952.47 C 716.06 950.81 746.12 944.23 776.02 937.77 C 763.33 944.81 749.23 949.12 735.41 953.42 C 667.63 970.83 592.28 968.01 528.99 936.80 Z" />
</g>
<g id="#fecf8aff">
<path fill="#fecf8a" opacity="1.00" d=" M 614.06 405.59 C 615.56 407.08 615.05 413.51 617.85 416.18 C 628.07 429.89 647.47 430.13 662.88 427.95 C 675.00 426.64 688.27 418.69 688.55 405.18 C 695.04 409.19 699.04 416.22 704.57 421.42 C 712.12 428.98 709.08 443.24 699.01 446.98 C 682.90 452.87 664.86 446.47 651.82 436.47 C 637.14 447.79 612.33 456.70 597.30 441.64 C 587.64 426.37 605.68 415.87 614.06 405.59 Z" />
<path fill="#fecf8a" opacity="1.00" d=" M 877.34 730.62 C 871.95 723.36 876.71 711.56 885.97 710.85 C 909.86 709.13 929.55 734.07 925.18 756.97 C 916.31 771.19 899.65 778.94 883.12 778.19 C 876.35 773.83 866.47 776.06 860.94 769.08 C 854.93 763.02 857.89 752.69 865.14 749.13 C 873.39 743.81 885.35 749.31 892.44 742.02 C 888.07 737.42 880.78 736.36 877.34 730.62 Z" />
<path fill="#fecf8a" opacity="1.00" d=" M 427.99 718.85 C 442.04 716.81 456.27 723.13 466.50 732.49 C 471.82 737.17 473.71 747.69 466.30 751.32 C 460.73 754.94 453.62 751.31 448.14 753.31 C 453.68 765.98 475.45 758.64 479.17 773.82 C 478.90 781.31 472.98 786.74 465.82 787.83 C 436.36 794.64 408.05 768.94 402.62 740.99 C 406.61 729.98 416.26 720.82 427.99 718.85 Z" />
<path fill="#fecf8a" opacity="1.00" d=" M 816.28 931.52 C 833.00 933.52 851.25 940.97 859.23 956.82 C 861.83 962.15 863.36 971.37 856.21 973.77 C 854.76 966.43 850.37 953.93 841.13 955.98 C 844.76 962.03 850.52 968.94 847.43 976.41 C 844.08 981.42 836.82 981.30 831.45 980.81 C 831.90 972.07 827.81 960.62 818.03 959.22 C 818.95 965.75 826.83 973.57 822.03 979.87 C 807.11 983.19 791.36 977.39 779.43 968.64 C 773.20 956.34 788.72 948.89 796.28 942.18 C 802.71 938.30 809.48 934.72 816.28 931.52 Z" />
<path fill="#fecf8a" opacity="1.00" d=" M 475.90 935.05 C 492.70 933.38 508.68 941.43 521.64 951.40 C 527.35 955.73 530.92 965.29 524.72 970.73 C 513.25 978.61 498.67 981.54 484.91 981.33 C 478.12 975.03 487.74 965.93 488.29 959.72 C 478.79 959.79 473.95 972.15 474.51 980.69 C 468.47 981.30 458.04 981.21 457.77 972.99 C 456.85 966.16 462.97 961.27 463.84 955.17 C 455.02 956.06 452.03 966.29 449.05 973.25 C 445.55 971.49 443.60 967.41 444.60 963.60 C 447.70 948.79 461.66 938.05 475.90 935.05 Z" />
</g>
<g id="#fc7206ff">
<path fill="#fc7206" opacity="1.00" d=" M 934.31 439.22 C 943.12 438.08 952.14 438.78 961.02 438.92 C 964.65 438.56 966.61 442.17 966.54 445.36 C 966.78 456.88 967.05 468.41 967.26 479.92 C 974.23 482.15 983.55 477.28 989.08 482.91 C 990.43 495.44 989.29 508.30 990.30 520.94 C 996.65 521.97 1003.26 521.67 1009.62 520.90 C 1010.50 508.74 1009.60 496.50 1010.51 484.38 C 1014.13 475.69 1027.43 483.60 1032.77 478.97 C 1033.77 467.19 1032.88 455.35 1033.61 443.58 C 1034.38 437.00 1042.40 438.99 1047.00 438.65 C 1053.83 439.58 1062.38 436.72 1068.08 440.96 C 1070.99 453.52 1068.56 466.92 1070.18 479.73 C 1082.39 480.54 1094.69 479.49 1106.94 479.73 C 1108.73 466.74 1105.25 452.72 1109.27 440.28 C 1118.13 437.09 1128.51 439.07 1137.92 439.02 C 1142.21 453.51 1124.49 445.77 1116.37 448.26 C 1116.10 460.18 1116.63 472.12 1116.18 484.04 C 1116.43 487.44 1113.16 489.48 1110.07 489.19 C 1095.37 489.36 1080.65 489.22 1065.95 489.23 C 1062.03 489.51 1060.96 485.10 1060.88 482.05 C 1060.33 470.78 1060.96 459.44 1059.98 448.19 C 1054.11 447.76 1048.16 447.46 1042.32 448.22 C 1042.22 461.13 1043.05 474.30 1041.04 487.05 C 1035.27 491.88 1026.26 487.93 1019.22 489.36 C 1017.98 501.95 1019.51 514.75 1018.25 527.29 C 1012.78 533.04 1003.16 529.12 996.00 530.28 C 991.40 529.52 984.23 532.50 981.66 527.35 C 980.38 514.80 980.91 502.09 980.49 489.49 C 973.49 487.78 964.03 492.33 958.74 486.30 C 957.13 473.70 958.40 460.85 956.94 448.23 C 951.38 447.67 945.74 447.57 940.18 448.15 C 939.38 460.01 939.86 471.92 939.58 483.80 C 939.78 487.34 936.38 489.74 933.06 489.28 C 922.38 489.09 911.65 489.72 901.01 488.97 C 900.48 486.13 900.25 483.14 901.09 480.34 C 910.64 480.08 920.23 480.47 929.78 479.87 C 933.76 468.17 927.19 450.30 934.31 439.22 Z" />
<path fill="#fc7206" opacity="1.00" d=" M 229.41 596.42 C 279.27 590.60 325.81 618.10 359.66 652.35 C 359.47 655.78 358.51 665.36 354.05 659.92 C 327.23 635.49 296.47 612.44 259.45 607.52 C 224.71 602.58 188.31 613.91 161.93 636.93 C 148.45 647.86 137.70 661.56 126.95 675.04 C 124.72 673.18 121.85 671.13 121.29 668.17 C 145.02 630.68 184.42 601.04 229.41 596.42 Z" />
</g>
<g id="#ee2306ff">
<path fill="#ee2306" opacity="1.00" d=" M 218.37 513.48 C 252.24 508.76 258.09 553.92 286.24 561.64 C 308.64 561.84 316.68 536.87 331.16 524.16 C 339.54 515.54 352.59 509.79 364.39 514.61 C 381.49 520.93 388.74 540.16 404.35 548.68 C 408.49 550.63 405.75 556.18 405.97 559.74 C 386.67 554.47 379.52 532.95 362.38 524.54 C 352.02 519.87 341.16 526.81 334.78 534.79 C 324.62 545.88 316.72 559.63 303.56 567.54 C 290.55 575.45 273.17 570.45 263.69 559.31 C 250.26 547.00 242.62 524.04 222.00 522.81 C 199.28 527.22 187.88 550.47 169.95 562.92 C 155.59 575.60 131.21 573.82 119.05 559.10 C 121.03 556.84 123.45 550.25 126.91 554.01 C 134.94 561.48 147.27 564.16 157.33 559.32 C 180.33 547.71 191.59 518.46 218.37 513.48 Z" />
<path fill="#ee2306" opacity="1.00" d=" M 932.34 533.47 C 941.47 532.52 950.69 532.87 959.85 533.25 C 962.39 533.21 964.31 535.49 964.17 537.97 C 964.54 547.85 965.05 557.73 965.41 567.61 C 994.80 567.61 1024.19 567.63 1053.58 567.61 C 1055.85 556.62 1052.03 543.87 1056.93 533.88 C 1067.19 532.84 1078.64 531.60 1088.62 534.38 C 1091.97 544.88 1089.37 556.53 1090.55 567.46 C 1096.34 567.87 1102.21 567.70 1107.97 566.95 C 1110.16 556.32 1106.55 544.69 1110.54 534.55 C 1118.84 531.17 1128.90 533.69 1137.85 533.12 C 1142.51 546.72 1126.17 541.13 1118.29 542.36 C 1116.32 553.16 1119.48 564.75 1116.22 575.19 C 1110.24 578.47 1102.62 575.84 1096.01 576.68 C 1091.35 576.09 1084.17 578.74 1081.65 573.40 C 1080.81 563.10 1081.19 552.69 1080.65 542.37 C 1075.18 542.06 1069.67 542.12 1064.21 542.37 C 1062.75 552.17 1063.85 562.14 1062.97 571.97 C 1062.94 574.63 1060.63 576.92 1057.94 576.67 C 1025.95 576.71 993.96 576.64 961.97 576.72 C 959.07 577.05 955.99 575.06 955.98 571.96 C 955.20 562.12 955.96 552.17 954.83 542.37 C 949.37 542.12 943.88 542.04 938.43 542.36 C 937.26 552.50 938.12 562.76 937.15 572.90 C 937.08 575.56 934.30 576.84 931.96 576.68 C 923.02 576.21 909.80 580.29 907.91 567.90 C 914.25 567.29 920.64 567.73 926.99 567.16 C 931.87 558.18 924.55 541.35 932.34 533.47 Z" />
<path fill="#ee2306" opacity="1.00" d=" M 258.41 683.51 C 292.04 679.93 326.81 689.21 354.53 708.41 C 354.61 711.70 358.14 721.98 352.12 717.93 C 318.66 696.69 276.23 685.65 237.62 698.65 C 191.29 713.90 158.66 753.21 132.25 792.28 C 129.90 797.82 124.78 789.95 124.30 787.20 C 155.28 739.51 198.47 690.42 258.41 683.51 Z" />
</g>
<g id="#265d8eff">
<path fill="#265d8e" opacity="1.00" d=" M 441.17 683.24 C 444.45 667.39 445.18 650.17 453.03 635.82 C 460.62 648.94 463.69 664.00 469.06 678.06 C 479.15 709.28 490.35 740.25 498.07 772.14 C 497.40 791.00 494.24 809.81 493.46 828.68 C 493.54 833.09 498.73 833.62 502.08 833.94 C 509.81 834.91 517.58 831.14 525.17 833.51 C 514.62 835.28 503.32 837.25 493.01 833.41 C 492.69 838.63 492.77 843.87 492.83 849.10 C 486.12 836.83 481.79 823.30 477.42 810.06 C 482.49 804.60 482.67 797.63 482.03 790.74 C 493.03 779.66 486.01 761.70 472.48 756.67 C 482.59 748.47 479.13 732.57 469.63 725.35 C 463.39 718.29 453.68 716.19 446.80 710.24 C 446.17 700.84 438.33 693.04 441.17 683.24 Z" />
<path fill="#265d8e" opacity="1.00" d=" M 725.33 650.18 C 729.90 648.06 734.10 657.49 727.93 657.18 C 722.97 659.45 719.02 650.72 725.33 650.18 Z" />
<path fill="#265d8e" opacity="1.00" d=" M 693.16 668.41 C 697.18 668.19 701.37 677.04 695.67 677.66 C 690.69 679.26 687.55 668.77 693.16 668.41 Z" />
<path fill="#265d8e" opacity="1.00" d=" M 676.38 670.38 C 681.10 668.76 685.13 679.99 678.86 679.73 C 674.48 680.38 671.84 671.28 676.38 670.38 Z" />
<path fill="#265d8e" opacity="1.00" d=" M 651.52 672.50 C 657.91 668.45 665.01 681.43 656.93 682.16 C 651.55 684.68 649.17 674.77 651.52 672.50 Z" />
<path fill="#265d8e" opacity="1.00" d=" M 850.59 694.51 C 852.88 694.27 855.24 693.86 857.51 694.49 C 858.21 703.44 861.37 713.32 867.77 719.52 C 866.57 726.87 869.03 734.01 874.77 738.78 C 864.03 741.67 855.43 736.48 855.22 723.70 C 854.38 715.28 855.62 706.86 855.45 698.46 C 855.16 695.57 851.61 696.50 849.63 696.48 C 741.09 708.82 632.59 721.62 524.06 734.07 C 521.75 734.45 519.12 734.44 517.26 736.05 C 515.58 739.06 516.15 743.05 514.69 746.29 C 513.59 742.09 508.31 733.10 516.06 733.08 C 627.60 720.46 739.07 707.25 850.59 694.51 Z" />
<path fill="#265d8e" opacity="1.00" d=" M 725.46 718.34 C 735.58 715.16 727.57 727.08 730.78 731.15 C 734.83 735.02 727.18 739.52 731.86 742.88 C 729.06 742.32 723.56 743.41 723.83 739.23 C 733.37 739.43 718.76 735.01 726.35 730.74 C 723.66 728.86 724.26 721.60 725.46 718.34 Z" />
<path fill="#265d8e" opacity="1.00" d=" M 827.46 719.42 C 837.73 716.81 826.93 726.82 832.93 730.21 C 822.95 734.46 826.20 723.17 827.46 719.42 Z" />
<path fill="#265d8e" opacity="1.00" d=" M 812.42 721.40 C 816.15 718.89 820.84 723.91 816.21 726.20 C 810.81 727.23 821.43 732.06 816.03 732.17 C 808.27 735.88 809.58 723.92 812.42 721.40 Z" />
<path fill="#265d8e" opacity="1.00" d=" M 676.41 723.34 C 684.48 721.84 680.19 729.62 680.01 733.81 C 683.09 738.55 683.77 751.02 675.08 747.95 C 670.47 746.34 679.37 741.95 674.67 741.42 C 674.92 737.32 673.87 732.14 677.65 729.38 C 673.88 729.06 673.38 725.23 676.41 723.34 Z" />
<path fill="#265d8e" opacity="1.00" d=" M 663.47 725.94 C 668.63 731.77 662.99 740.56 666.13 746.17 C 667.01 753.21 654.26 749.17 660.24 744.69 C 662.14 753.12 666.97 741.79 659.05 742.96 C 664.64 741.02 655.91 737.07 662.89 737.51 C 658.58 736.70 658.16 731.72 662.77 730.78 C 660.15 728.79 659.75 726.64 663.47 725.94 Z" />
<path fill="#265d8e" opacity="1.00" d=" M 564.42 736.30 C 570.92 733.94 570.46 742.15 567.65 745.44 C 572.56 748.62 566.24 748.29 563.37 747.87 C 565.83 744.10 560.77 739.20 564.42 736.30 Z" />
<path fill="#265d8e" opacity="1.00" d=" M 565.38 749.24 C 572.78 746.89 570.03 758.54 568.78 761.04 C 561.92 761.72 562.33 756.84 568.19 755.36 C 562.96 756.97 561.33 752.03 565.38 749.24 Z" />
<path fill="#265d8e" opacity="1.00" d=" M 534.07 824.70 C 636.94 814.26 739.61 801.63 842.30 789.32 C 845.45 788.38 847.44 790.85 848.27 793.59 C 848.02 793.84 847.53 794.35 847.29 794.60 C 745.23 806.77 643.21 819.22 540.97 829.85 C 535.43 829.31 527.08 833.45 523.36 828.93 C 524.23 825.91 522.74 819.94 527.11 819.97 C 530.71 818.89 530.60 825.26 534.07 824.70 Z" />
</g>
<g id="#ddcd9bff">
<path fill="#ddcd9b" opacity="1.00" d=" M 722.44 643.48 C 727.25 641.27 726.32 645.72 725.58 648.90 C 723.94 646.30 719.25 642.60 720.50 648.32 C 704.69 650.00 677.87 653.23 659.11 654.12 C 657.87 643.26 670.07 657.85 666.51 649.84 C 670.13 647.73 675.96 647.83 678.18 651.84 C 680.54 644.11 693.81 647.66 701.18 646.99 C 707.73 643.05 715.79 647.46 722.44 643.48 Z" />
<path fill="#ddcd9b" opacity="1.00" d=" M 652.47 650.49 C 661.21 647.45 657.13 661.17 651.52 653.90 C 651.61 655.41 638.11 659.20 642.01 651.33 C 645.55 653.96 648.78 650.71 652.47 650.49 Z" />
<path fill="#ddcd9b" opacity="1.00" d=" M 684.30 669.08 C 688.76 667.96 692.11 675.26 689.25 678.31 C 683.83 682.07 678.88 671.56 684.30 669.08 Z" />
<path fill="#ddcd9b" opacity="1.00" d=" M 779.28 711.21 C 784.51 710.32 784.91 716.59 779.75 717.06 C 774.42 719.41 774.57 711.42 779.28 711.21 Z" />
<path fill="#ddcd9b" opacity="1.00" d=" M 631.28 729.20 C 635.60 729.91 635.07 733.36 631.84 735.29 C 636.04 733.99 637.12 739.48 633.33 740.82 C 640.60 741.24 626.96 746.06 635.06 745.06 C 635.42 746.69 636.84 756.31 630.11 754.22 C 624.29 752.28 631.31 745.90 628.05 742.75 C 633.81 741.91 624.90 738.69 628.85 735.96 C 632.22 734.04 627.18 731.12 631.28 729.20 Z" />
<path fill="#ddcd9b" opacity="1.00" d=" M 613.34 731.05 C 620.01 728.49 619.22 739.06 616.69 739.91 C 622.75 744.45 605.14 744.56 613.83 740.10 C 609.11 740.55 611.59 736.79 615.06 737.76 C 611.16 737.64 609.28 732.76 613.34 731.05 Z" />
<path fill="#ddcd9b" opacity="1.00" d=" M 669.24 756.13 C 730.17 749.16 791.14 742.37 852.01 734.79 C 856.61 733.55 861.57 738.38 861.69 742.64 C 857.26 743.58 852.37 743.38 847.73 743.63 C 849.40 746.51 853.00 745.67 855.79 746.18 C 850.13 752.28 848.66 760.47 850.26 768.42 C 844.21 773.33 850.68 787.43 840.62 787.47 C 739.70 799.57 638.77 811.67 537.75 822.71 C 535.94 822.52 532.35 824.06 532.80 821.01 C 531.12 805.56 536.95 788.08 526.20 774.92 C 524.70 772.06 529.35 772.43 531.08 771.85 C 575.10 767.03 618.93 761.58 662.95 756.92 C 665.37 758.16 667.30 758.08 669.24 756.13 M 831.44 744.56 C 820.13 746.48 838.81 752.68 838.67 745.31 C 836.46 744.11 833.83 744.06 831.44 744.56 M 795.41 749.50 C 785.60 752.09 802.61 756.09 802.69 750.30 C 800.72 748.54 797.78 749.23 795.41 749.50 M 836.40 771.38 C 828.04 767.93 825.72 782.92 834.62 779.64 C 839.25 780.89 841.44 770.03 836.40 771.38 M 819.37 773.41 C 813.30 772.69 809.33 775.25 811.06 781.74 C 815.80 785.64 824.07 776.91 819.37 773.41 M 570.49 775.56 C 565.90 779.30 579.12 781.22 579.03 776.11 C 576.45 774.66 573.26 774.90 570.49 775.56 M 794.46 776.54 C 788.15 782.90 797.53 786.99 802.73 783.68 C 805.80 776.25 801.21 774.07 794.46 776.54 M 776.37 778.42 C 774.66 779.81 773.48 788.56 778.25 786.32 C 786.81 786.89 784.94 773.66 776.37 778.42 M 759.45 780.54 C 756.65 781.57 756.53 790.84 761.26 788.32 C 769.65 788.98 767.98 775.08 759.45 780.54 M 742.21 782.35 C 739.12 790.47 745.13 789.67 751.02 790.29 C 752.54 783.56 749.03 779.43 742.21 782.35 M 734.23 783.46 C 726.46 780.27 721.91 793.44 731.00 791.96 C 736.83 794.94 735.30 785.35 734.23 783.46 M 716.40 785.38 C 709.47 782.73 707.89 796.16 715.01 793.80 C 720.09 795.74 721.16 783.86 716.40 785.38 M 698.44 787.42 C 692.82 785.98 692.94 798.39 698.61 795.62 C 705.10 796.79 705.93 783.46 698.44 787.42 M 682.41 789.38 C 677.01 788.58 677.98 794.12 678.29 797.78 C 681.48 797.56 684.74 797.21 687.81 798.35 C 687.76 793.81 689.21 786.79 682.41 789.38 M 658.32 792.28 C 656.13 798.88 659.98 801.90 666.17 799.19 C 669.69 792.76 664.16 789.79 658.32 792.28 M 648.40 793.41 C 640.10 790.06 637.73 804.62 646.65 801.62 C 652.31 804.09 652.43 792.80 648.40 793.41 M 628.39 795.47 C 622.12 794.23 622.43 806.68 629.05 803.79 C 636.59 807.78 636.85 790.42 628.39 795.47 M 612.43 797.39 C 605.98 795.26 605.82 808.57 612.24 805.49 C 617.57 807.94 616.21 794.44 617.16 802.03 C 617.02 812.17 620.92 792.06 612.43 797.39 M 595.41 799.39 C 588.76 798.02 586.00 802.39 587.92 808.55 C 591.19 808.09 596.67 809.02 596.46 804.31 C 598.13 811.08 599.62 797.33 595.41 799.39 M 578.47 801.33 C 570.33 797.89 567.25 812.25 576.05 810.00 C 580.83 811.88 582.16 800.67 578.47 801.33 M 560.49 803.34 C 552.55 800.33 551.60 814.74 559.59 811.61 C 564.22 812.65 565.65 801.19 560.49 803.34 M 542.44 805.40 C 535.98 803.37 535.55 816.52 542.14 813.40 C 548.90 815.59 549.28 802.27 542.44 805.40 Z" />
<path fill="#ddcd9b" opacity="1.00" d=" M 534.06 739.96 C 536.95 743.38 538.99 751.16 535.23 755.63 C 542.36 758.19 530.16 757.43 532.28 762.89 C 535.96 764.06 535.77 761.42 535.16 758.62 C 542.22 759.61 534.86 768.74 531.06 763.97 C 529.03 759.73 532.47 753.38 533.13 752.45 C 527.59 748.97 533.70 744.55 534.06 739.96 Z" />
</g>
<g id="#3172aaff">
<path fill="#3172aa" opacity="1.00" d=" M 676.21 655.62 C 681.80 653.58 683.23 656.58 686.55 659.18 C 683.89 654.68 690.12 652.49 689.27 657.93 C 687.24 663.78 680.86 655.94 677.27 660.38 C 673.20 663.88 670.88 654.30 676.21 655.62 Z" />
<path fill="#3172aa" opacity="1.00" d=" M 745.05 716.45 C 749.32 717.16 748.26 719.93 745.82 722.31 C 753.79 722.25 744.76 731.43 748.03 734.34 C 752.61 740.52 741.27 744.06 741.08 737.22 C 745.21 732.75 741.69 741.30 746.78 738.70 C 747.96 734.40 740.16 735.97 741.11 732.14 C 741.23 728.76 745.42 729.25 747.50 727.59 C 744.59 728.51 739.13 727.96 741.61 723.76 C 747.38 721.11 739.54 720.17 745.05 716.45 Z" />
<path fill="#3172aa" opacity="1.00" d=" M 781.45 717.25 C 787.21 716.44 776.17 727.21 782.97 724.26 C 784.61 728.52 782.36 732.75 782.62 737.07 C 775.65 738.49 774.18 732.77 781.03 731.08 C 774.59 733.41 774.17 725.82 778.86 723.31 C 774.77 723.49 776.93 720.74 779.09 719.53 C 772.92 720.09 778.04 716.65 781.45 717.25 Z" />
<path fill="#3172aa" opacity="1.00" d=" M 708.20 726.70 C 710.44 726.30 715.61 724.39 715.21 728.00 C 715.76 733.14 703.32 731.61 708.20 726.70 Z" />
<path fill="#3172aa" opacity="1.00" d=" M 847.29 794.60 C 847.53 794.35 848.02 793.84 848.27 793.59 C 852.37 796.56 849.16 801.97 851.13 805.91 C 852.91 810.82 857.79 813.17 861.90 815.80 C 742.49 831.38 622.75 844.69 502.99 857.19 C 498.11 857.60 493.50 853.94 492.83 849.10 C 492.77 843.87 492.69 838.63 493.01 833.41 C 503.32 837.25 514.62 835.28 525.17 833.51 C 629.00 824.44 732.63 810.65 836.22 798.32 C 839.63 797.13 845.90 798.40 847.29 794.60 Z" />
</g>
<g id="#f3ad5dff">
<path fill="#f3ad5d" opacity="1.00" d=" M 446.41 806.64 C 418.33 800.64 392.65 770.41 402.62 740.99 C 408.05 768.94 436.36 794.64 465.82 787.83 C 472.98 786.74 478.90 781.31 479.17 773.82 C 483.06 789.87 460.90 791.19 449.99 789.95 C 454.93 797.41 465.38 796.31 473.12 795.34 C 475.08 809.42 455.72 809.39 446.41 806.64 Z" />
<path fill="#f3ad5d" opacity="1.00" d=" M 883.12 778.19 C 899.65 778.94 916.31 771.19 925.18 756.97 C 921.88 782.28 900.79 804.90 875.23 808.42 C 869.22 809.02 861.16 807.97 858.90 801.38 C 865.52 802.44 875.04 803.92 878.98 797.03 C 872.46 795.68 865.03 798.12 859.21 793.75 C 853.24 790.51 851.42 780.29 857.97 776.87 C 865.61 781.29 875.11 782.32 883.12 778.19 Z" />
<path fill="#f3ad5d" opacity="1.00" d=" M 475.90 935.05 C 481.39 932.95 487.55 930.78 493.44 931.58 C 513.13 942.84 534.07 951.78 555.24 959.81 C 557.38 964.14 550.40 965.71 547.69 967.72 C 528.40 976.62 506.20 984.26 484.91 981.33 C 498.67 981.54 513.25 978.61 524.72 970.73 C 530.92 965.29 527.35 955.73 521.64 951.40 C 508.68 941.43 492.70 933.38 475.90 935.05 Z" />
<path fill="#f3ad5d" opacity="1.00" d=" M 753.14 959.08 C 767.80 954.20 781.64 946.99 796.28 942.18 C 788.72 948.89 773.20 956.34 779.43 968.64 C 791.36 977.39 807.11 983.19 822.03 979.87 C 820.38 983.47 815.24 982.07 812.02 982.35 C 791.98 980.80 772.18 975.00 754.45 965.54 C 751.63 964.58 748.73 960.00 753.14 959.08 Z" />
</g>
</svg>
